<svg width="248" height="64" viewBox="0 0 248 64" fill="none" xmlns="http://www.w3.org/2000/svg" role="img" aria-label="VitaCare Plus">
  <defs>
    <linearGradient id="lkFill" x1="8" y1="8" x2="56" y2="56" gradientUnits="userSpaceOnUse">
      <stop stop-color="#3B82F6"></stop>
      <stop offset="0.55" stop-color="#2563EB"></stop>
      <stop offset="1" stop-color="#1D4ED8"></stop>
    </linearGradient>
    <linearGradient id="lkGloss" x1="14" y1="8" x2="32" y2="44" gradientUnits="userSpaceOnUse">
      <stop stop-color="#fff" stop-opacity="0.26"></stop>
      <stop offset="1" stop-color="#fff" stop-opacity="0"></stop>
    </linearGradient>
  </defs>
  <rect x="8" y="8" width="48" height="48" rx="14" fill="url(#lkFill)"></rect>
  <rect x="8" y="8" width="48" height="48" rx="14" fill="url(#lkGloss)"></rect>
  <path d="M24.5 45.5C20.2 41.9 16 37.2 16 31.6C16 27.4 18.9 24 23 24C25.4 24 27.4 25.3 28.5 27.1C29.6 25.3 31.6 24 34 24C38.1 24 41 27.4 41 31.6C41 33.9 40 36.1 38.4 38" fill="none" stroke="#fff" stroke-width="3.1" stroke-linecap="round" stroke-linejoin="round"></path>
  <path d="M18 33.5h6.2l1.9-4.3 2.7 8.6 1.7-4.3H37" fill="none" stroke="#fff" stroke-width="2.4" stroke-linecap="round" stroke-linejoin="round"></path>
  <text x="72" y="34" font-family="Inter, system-ui, sans-serif" font-size="23" font-weight="800" letter-spacing="-0.6" fill="#0F172A">VitaCare<tspan font-weight="700" fill="#1D4ED8"> Plus</tspan></text>
  <text x="73" y="49" font-family="Inter, system-ui, sans-serif" font-size="10" font-weight="600" letter-spacing="2.4" fill="#64748B">PREMIUM HEALTHCARE</text>
</svg>